<svg viewBox="0 0 508.82 508.75"
    xmlns="http://www.w3.org/2000/svg">
    <g fill="#fff" transform="translate(-1.54 -1.7)">
        <path d="m27.41 325.62v43.54c0 7.85 6.9 15.36 15 15s15-6.59 15-15v-43.54c0-7.84-6.89-15.36-15-15s-15 6.59-15 15z"/>
        <path d="m118.71 186.3.23 95.86.37 151.47.08 34.77c0 7.84 6.88 15.36 15 15s15-6.6 15-15l-.23-95.87-.37-151.47-.08-34.76c0-7.85-6.88-15.36-15-15s-15 6.59-15 15z"/>
        <path d="m210.31 83.64v319.89c0 14.69-.49 29.47 0 44.16v.65c0 7.85 6.9 15.36 15 15s15-6.59 15-15v-319.89c0-14.69.5-29.47 0-44.15v-.66c0-7.84-6.89-15.36-15-15s-15 6.59-15 15z"/>
        <path d="m299.85 36.87v309c0 14.23-.48 28.55 0 42.78v.63c0 7.84 6.9 15.36 15 15s15-6.59 15-15v-309c0-14.23.47-28.55 0-42.78 0-.21 0-.42 0-.63 0-7.84-6.9-15.36-15-15s-15 6.59-15 15z"/>
        <path d="m390.35 122v202.61c0 7.84 6.9 15.36 15 15s15-6.59 15-15v-202.61c0-7.85-6.9-15.37-15-15s-15 6.59-15 15z"/>
        <path d="m188.1 454.51h-44.61c-7.85 0-15.37 6.9-15 15s6.59 15 15 15h44.61c7.85 0 15.37-6.9 15-15s-6.59-15-15-15z"/>
        <path d="m326.61 364.2h-285.18c-7.85 0-15.36 6.9-15 15s6.59 15 15 15h285.18c7.85 0 15.37-6.9 15-15s-6.59-15-15-15z"/>
        <path d="m429.21 272.56h-317.75c-14.69 0-29.49-.5-44.18 0h-.61c-7.85 0-15.37 6.9-15 15s6.59 15 15 15h317.74c14.7 0 29.49.5 44.18 0h.62c7.84 0 15.36-6.9 15-15s-6.6-15-15-15z"/>
        <path d="m473.67 183.58h-306.67c-14.08 0-28.26-.47-42.34 0h-.63c-7.85 0-15.36 6.89-15 15s6.59 15 15 15h306.66c14.09 0 28.27.46 42.35 0h.63c7.84 0 15.36-6.9 15-15s-6.59-15-15-15z"/>
        <path d="m389 92.22h-202c-7.85 0-15.37 6.9-15 15s6.59 15 15 15h202c7.85 0 15.37-6.9 15-15s-6.59-15-15-15z"/>
        <path d="m443.11 105.26c-.7.68-1.41 1.32-2.12 2-.36.33-2.27 1.6-.34.28a40.56 40.56 0 0 1 -4.18 2.55c-.35.19-3 1.42-1.33.72s-1 .34-1.42.47a49.8 49.8 0 0 1 -5.28 1.35c-2.32.48 2.32-.14 0 0-.9 0-1.8.12-2.71.14a44.2 44.2 0 0 1 -4.74-.2c3.18.3-1.94-.49-2.68-.7-1-.26-5.18-2-2.85-.84-1.69-.81-3.24-1.8-4.87-2.7-.36-.19-2.32-1.62-.41-.15-.75-.58-1.48-1.24-2.17-1.89a40.47 40.47 0 0 1 -3.49-3.68c-1.54-1.84 1 1.64-.21-.37-.63-1-1.27-2-1.84-3-.33-.61-.63-1.23-.95-1.85-1.09-2.1.67 2-.11-.22-.52-1.51-1-3-1.38-4.57-.21-.89-.38-1.78-.54-2.67.49 2.83.07.58.07-.05 0-2-.08-4 .05-6.1.12-1.77-.07.38-.12.63.17-.9.33-1.79.54-2.67a41.46 41.46 0 0 1 1.62-5.22c-1 2.55.76-1.31 1.17-2s1-1.58 1.49-2.37c.79-1.27-1.08 1 .67-.92 1.15-1.25 2.3-2.48 3.56-3.62.27-.24 2.6-2.06 1.26-1.09s1.08-.65 1.38-.83a41.19 41.19 0 0 1 4.28-2.33c-2.33 1.1-.29.11.24 0 1.09-.32 2.16-.69 3.27-1s4.86-.76 2-.53a46.75 46.75 0 0 1 5.42-.18c.9 0 1.8.11 2.7.18-.66-.05-2.8-.59 0 .07 1.78.42 3.51.92 5.26 1.44 2.7.79.87.34.24 0 .84.39 1.67.81 2.47 1.26s3.88 2.41 3.19 1.9 2.19 1.94 2.84 2.58 1.32 1.41 2 2.13c2.9 3.16-.62-1.09.67.92a45.72 45.72 0 0 1 3.09 5.45c-1.16-2.48.82 2.73 1 3.51s.31 1.33.46 2c.93 4 0-2.71.18 1.39.07 1.81.06 3.6 0 5.42-.09 2.89-.05.71.07.05-.2 1.12-.43 2.23-.71 3.33-.17.66-.35 1.32-.55 2-.11.33-1.75 4.21-.47 1.54-.8 1.68-1.79 3.24-2.69 4.87-1.27 2.28-.64 1-.15.4a37 37 0 0 1 -2.9 3.22 15.27 15.27 0 0 0 0 21.22c5.67 5.66 15.57 5.84 21.21 0a56.5 56.5 0 0 0 10.44-64.05c-9.52-19.86-31.88-32.6-53.81-30.65-23.5 2.09-44.34 18.64-49.89 42-5.45 22.94 3.93 46.29 23.18 59.66 21.66 15 51.54 10.95 70.08-7 5.83-5.63 5.66-15.56 0-21.22a15.22 15.22 0 0 0 -21.19-.01z"/>
        <path d="m506.05 147-41.73-41.73v21.22c21-21.72 21.7-57 0-78.62s-56.84-21-78.61 0h21.21l-41.92-41.87c-4.94-5-12.16-5.41-18.17-2.4l-87.27 43.79-42.74 21.45-21.37 10.72c-3.55 1.78-7.23 3.42-10.69 5.36-4.84 2.73-7.45 6.71-10.53 11.23l-108.89 160-61.74 90.68c-3.7 5.45-2.12 13.71 2.4 18.17l141 141c4.45 4.45 12.71 6 18.18 2.35l160.67-108.18 81.15-54.66 9.94-6.7c3.76-2.53 7.88-4.78 10.35-8.73 4.5-7.2 7.7-15.67 11.45-23.3q10.59-21.51 21.16-43l48.48-98.59c3.57-7.27 2-16.23-5.38-20.52-6.62-3.87-16.94-1.92-20.53 5.38l-81.07 164.89 5.38-5.38-200.43 135-56.35 37.93 18.17 2.35-141-141 2.34 18.16 135.83-199.59 38.16-56.07-5.38 5.38 163.88-82.21-18.2-2.35 41.91 41.91a15.24 15.24 0 0 0 21.21 0c.87-.84 1.74-1.66 2.67-2.43 1.18-1-1.27.67 1-.61 1-.59 2-1.22 3-1.77s2.81-1.28.81-.5a57.1 57.1 0 0 1 6.55-1.91c2.77-.72-1 0 .71-.12 1.13-.07 2.25-.15 3.38-.15s2.26.07 3.39.15c2.34.15-3.33-.83.71.12a51.17 51.17 0 0 1 6.55 1.91c-2-.77-.13 0 .81.5s2 1.18 3 1.77c2.23 1.28-.22-.38 1 .61.92.77 1.82 1.58 2.67 2.43.68.69 1.33 1.41 2 2.13 2.64 2.91-.87-1.86 1.07 1.5.46.81 1 1.58 1.43 2.4.15.27 1.91 4.23.83 1.42a49.6 49.6 0 0 1 1.91 6.55c.32 1.4.19 1.53.07 0 .09 1.13.17 2.25.19 3.38s0 2.26-.08 3.39c-.14 4.14.41-1.59-.06.72a49.84 49.84 0 0 1 -1.79 6.57c-.53 1.49.95-1.49-.41.84-.59 1-1.11 2-1.72 3-.47.76-1.79 2.65-.52 1a37 37 0 0 1 -2.9 3.22 15.26 15.26 0 0 0 0 21.22l41.73 41.72a15 15 0 1 0 21.13-21.13z"/>
    </g>
</svg>
