<svg enable-background="new 0 0 114.2 122.9" viewBox="0 0 114.2 122.9"
    xmlns="http://www.w3.org/2000/svg">
    <path d="m34.8 18c-16 24.3-24.6 52.6-25 81.7 7.3 4.4 29.8 16.3 58.8 12.1 12.4-1.9 24.3-6.4 34.8-13.2-.5-15.4-3.1-30.6-7.8-45.2-3.4-10.5-7.8-20.7-13.2-30.3-1.3-1.7-10-12.3-25-12.8-8.3-.3-16.3 2.5-22.6 7.7zm22 7.6c8.5 0 15.4 8.3 15.4 18.5s-6.9 18.5-15.4 18.5-15.4-8.3-15.4-18.5 6.9-18.5 15.4-18.5zm0 86.9c-21.6-.2-37.6-9.2-44.4-13.6 1.4-12.3 2.8-24.8 4.2-37.1 1.1.1 2.1.5 2.9 1.3 1.7 1.7 1.4 4.6 1.3 8.1-.1 2.8-.3 9.8 1.1 15.7.6 2.6 1.6 5.2 2.9 7.5 1.4 1.5 2.8 3.1 4.2 4.5h56.5c1.4-1.5 2.8-3.1 4.1-4.5 1.3-2.3 2.2-4.8 2.8-7.4 1.5-6.2 1.3-13.7 1.2-15.7-.1-3.5-.4-6.3 1.2-8.1.8-.8 1.9-1.2 3-1.3 1.4 12.3 2.8 24.8 4.1 37.1-13.3 8.8-29 13.5-45.1 13.5z" fill="#fff"/>
    <path d="m104.4 99.7c-1.5-11.6-3-23.3-4.4-34.9-2.4-7.6-5.3-15.1-8.6-22.4-8-16.9-12.3-26.7-21.9-30.2-5.2-1.9-11.6-1.9-12.1-1.9s-7.2 0-12.4 1.9c-9.4 3.5-13.8 13-21.8 30.2-3.4 7.3-6.4 14.7-8.8 22.4-1.5 11.6-3 23.3-4.5 34.9 14.4 8.3 30.8 12.6 47.4 12.7 16.5-.1 32.7-4.5 47.1-12.7z" fill="none" stroke="#fff" stroke-linejoin="round" stroke-width="6"/>
</svg>
