<svg viewBox="0 0 412.45 412.39"
    xmlns="http://www.w3.org/2000/svg">
    <g fill="#fff" transform="translate(-49.7 -49.89)">
        <path d="m73.66 313v34.24c0 15.44 24 15.47 24 0v-34.24c0-15.44-24-15.47-24 0z"/>
        <path d="m147 203.4.18 75 .29 119.49.07 27.31c0 15.44 24 15.47 24 0l-.18-75-.29-119.48-.07-27.32c0-15.44-24-15.47-24 0z"/>
        <path d="m219.05 122.68v286.77c0 15.44 24 15.46 24 0v-286.77c0-15.44-24-15.47-24 0z"/>
        <path d="m289.45 85.91v277.09c0 15.44 24 15.47 24 0v-277.09c0-15.45-24-15.47-24 0z"/>
        <path d="m360.62 152.86v159.29c0 15.45 24 15.47 24 0v-159.29c0-15.44-24-15.47-24 0z"/>
        <path d="m201.79 414.09h-35.08c-15.44 0-15.47 24 0 24h35.08c15.45 0 15.47-24 0-24z"/>
        <path d="m310.7 343.08h-224.24c-15.44 0-15.47 24 0 24h224.24c15.45 0 15.47-24 0-24z"/>
        <path d="m391.37 271h-285.06c-15.45 0-15.47 24 0 24h285.06c15.45 0 15.47-24 0-24z"/>
        <path d="m426.34 201.05h-274.9c-15.44 0-15.47 24 0 24h274.9c15.44 0 15.46-24 0-24z"/>
        <path d="m359.72 129.22h-158.72c-15.45 0-15.47 24 0 24h158.72c15.45 0 15.47-24 0-24z"/>
        <path d="m398.74 133.09c-.69.68-1.4 1.34-2.15 2q2.66-2 .19-.31c-1.07.55-6.23 2.45-1.95 1.22-1.35.39-3.87 1.7-5.29 1.38l2.08-.29c-.91.07-1.81.11-2.72.11s-1.82 0-2.72-.11q3.78.58.74 0c-1-.29-6.41-2.34-2.22-.35-1.48-.7-2.82-1.66-4.27-2.38q-1.6-1.08.77.7c-.74-.62-1.46-1.28-2.14-2s-1.34-1.41-2-2.15q2 2.66.3.19c-.58-1.15-2.31-6.17-1.21-1.95-.35-1.32-.78-2.63-1.13-4q-.56-3.06 0 .74c-.08-.91-.12-1.82-.12-2.72s0-1.82.12-2.72q-.6 3.78 0 .74c.14-.47 1.54-5.6.74-3.09s1.33-2.27 1.6-2.82q1.69-2.46-.3.19c.62-.74 1.27-1.46 2-2.14s1.4-1.34 2.14-2c-1.76 1.34-1.83 1.44-.19.31 1.25-.63 2.42-1.39 3.69-2-4.19 2 1.24-.06 2.22-.35q3-.55-.74 0c.9-.08 1.81-.12 2.72-.12s1.81 0 2.72.12q-3.8-.6-.74 0c1.3.39 2.64.75 3.95 1.12-4.28-1.23.88.67 1.95 1.22q2.46 1.69-.19-.31c.75.63 1.46 1.28 2.15 2 1.2 1.2 2.49 3.32.88.77a47.7 47.7 0 0 1 2.77 4.87c-2-4.19.05 1.23.34 2.22.38 2 .36 1.78 0-.74.07.9.11 1.81.11 2.72 0 .68 0 1.36-.07 2-.1 1.37 0 .91.25-1.41.28 1.48-1 3.9-1.38 5.3 1.23-4.28-.67.88-1.22 1.95q-1.69 2.46.31-.19c-.62.74-1.28 1.46-2 2.15-6.51 6.81-7.28 18.77 0 25.45 7.05 6.48 18.5 7.27 25.45 0a50.9 50.9 0 0 0 9.28-57.66c-8.33-17.6-28.59-29.14-48-27.36-20.93 1.92-39.45 16.08-44.84 36.84-5.43 21 3.28 42.6 21 54.69 19.47 13.28 45.94 9.35 62.52-6.51 6.82-6.52 7.06-19 0-25.45-7.27-6.59-18.14-6.83-25.4.13z"/>
        <path d="m457 165.9-32.82-32.81v25.45c18.77-19.63 19.47-51.06 0-70.59s-51-18.71-70.59 0h25.46l-33-33c-5.94-5.94-14.6-6.43-21.81-2.81l-68 34.09-34.41 17.27-15.89 8-7.94 4c-5.17 2.59-8.19 6.44-11.35 11.08l-85.65 126.04-48.82 71.67c-4.45 6.53-2.55 16.45 2.81 21.81l110.91 110.9c5.34 5.34 15.25 7.23 21.81 2.81l127.42-85.81 62.87-42.36c6.35-4.28 14.68-8.37 18.47-15.14 3.21-5.73 5.84-11.88 8.74-17.77l16.61-33.73q19-38.64 38-77.27c4.15-8.44 2.56-19.86-6.46-24.63-8.11-4.28-20.19-2.56-24.62 6.46q-31.89 64.83-63.74 129.65l6.46-6.45-201.89 136 21.81 2.81-110.93-110.92 2.81 21.81 136.82-201-6.46 6.46 128.84-64.66-21.81-2.81 33 33c7 7 18.42 6.73 25.46 0 .68-.69 1.4-1.34 2.14-2-1.76 1.34-1.83 1.44-.19.31 1.08-.55 6.24-2.45 1.95-1.22 1.54-.44 3.1-.82 4.63-1.25 1.36-.25.89-.2-1.41.17.9-.08 1.81-.12 2.72-.12s1.81 0 2.72.12q-3.8-.6-.74 0c1 .29 6.41 2.34 2.21.35 1.27.6 2.45 1.36 3.69 2q2.46 1.69-.19-.31c.75.63 1.46 1.28 2.15 2s1.34 1.4 2 2.14q-2-2.65-.31-.19c.69 1.24 1.37 2.42 2 3.69-2-4.13 0 1.2.34 2.22.38 2 .36 1.78 0-.74.07.9.11 1.81.11 2.72s0 1.81-.11 2.72l.29-2.09c.32 1.43-1 3.94-1.38 5.3 1.23-4.28-.67.88-1.22 1.95q-1.69 2.46.31-.19c-.62.74-1.28 1.46-2 2.15-6.72 7-7 18.44 0 25.45l32.81 32.81c6.67 6.67 18.88 7.17 25.46 0s7.03-18.44-.09-25.54z"/>
    </g>
</svg>
