<svg viewBox="0 0 458.64 458.58"
    xmlns="http://www.w3.org/2000/svg">
    <path d="m456.9 134.92a18.4 18.4 0 0 0 -5.62-7.59l-23.15-23.15a57.77 57.77 0 0 0 -.92-46.24l-.37-.85a52.53 52.53 0 0 0 -14.6-18.38l-.41-.33-1.33-1c-1.25-.94-2.52-1.81-3.83-2.63l-1-.62-.83-.49c-9.82-5.72-21.29-8.6-32.4-7.45a62.35 62.35 0 0 0 -13.56 3c-1.43.47-2.84 1-4.24 1.57l-24.74-24.76c-6.93-6.93-17-7.5-25.44-3.28l-75.76 38-38.32 19.19-17.83 8.94c-3 1.49-6 2.84-8.91 4.47-5.74 3.24-9 8-12.68 13.37l-94.23 138.43-53.84 79.11c-5.19 7.62-3 19.19 3.29 25.45l122.75 122.75c6.23 6.23 17.8 8.43 25.44 3.28l140.7-94.71 69.52-46.83c7-4.69 16.34-9.15 20.77-16.45 3.76-6.18 6.51-13.24 9.71-19.73l18.52-37.68q21.18-43 42.35-86.11a25.15 25.15 0 0 0 1.12-2.75 21.26 21.26 0 0 0 -.16-16.53zm-345.79 84.8.06 24.94h-17q8.45-12.48 16.94-24.94zm-50.8 104.69-6.61-6.61c-.07-4.57-.06-9.14 0-13.72q12-17.71 24.11-35.42h33.43l.13 55.75h-51zm24 24h27.11l.06 27.18zm208.32-272.21v-20.7l18.26-9.16 13.79 13.78a54.34 54.34 0 0 0 -2.68 7.81 56.25 56.25 0 0 0 -1.45 19.78h-27.92zm-101.92 281v23.48l-7.88 5.32-25.45 17.14c-6.12.09-12.25.16-18.36 0l-3.48-3.48-.12-51.23h55.29zm0-32.8h-55.35l-.13-55.75h55.48zm0-79.75h-55.54l-.11-45.84v-7.61h55.67zm0-77.45h-43.86l10.09-14.82 27.69-40.68h6.08zm24 197.32v-16.11h23.94zm53.92-57v16.93h-53.92v-55.79h53.92zm0-62.82h-53.92v-53.49h53.92zm0-102.41v25h-53.92v-55.5h53.92zm0-54.54h-40.18l40.18-20.17zm78.76 187.45-54.76 36.89v-43.43h54.76zm0-30.5h-54.76v-53.49h54.76zm0-77.45h-54.76v-55.5h36.23a60.37 60.37 0 0 0 17 17.78c.5.34 1 .66 1.5 1zm4.19-84.52a25 25 0 1 1 25 25 25 25 0 0 1 -25-25.04zm19.81 148.44v-39.96h19.61q-9.79 19.97-19.61 39.92zm31.43-63.92h-31.43v-28.9a58.57 58.57 0 0 0 27-4.52l14 14z" fill="#fff"/>
</svg>
